PathFileType	4	(X/Y/Z)	C:\Users\italobelli\Desktop\GitHub\PTbot_officialCBL\Personal_Results\FLX23_noisy1.trc
DataRate	CameraRate	NumFrames	NumMarkers	Units	OrigDataRate	OrigDataStartFrame	OrigNumFrames
106.533333	106.533333	25	9	m	106.533333	101	800
Frame#	Time		gu		centelbow		EpL		centpxt8		centijc7		ij		ts		aa		ai
			X1	Y1	Z1	X2	Y2	Z2	X3	Y3	Z3	X4	Y4	Z4	X5	Y5	Z5	X6	Y6	Z6	X7	Y7	Z7	X8	Y8	Z8	X9	Y9	Z9

101	0.93867	-0.074945	-0.018157	0.16708	-0.12575	-0.27341	0.19927	-0.10826	-0.27056	0.22622	-0.046816	-0.15316	-0.008669	-0.046816	0.031938	-0.008669	0	0	0	-0.13554	0.02674	0.054674	-0.10558	0.019492	0.16986	-0.15569	-0.084825	0.058289
102	0.94806	-0.074938	-0.018119	0.16709	-0.1257	-0.27344	0.19951	-0.10821	-0.27057	0.22645	-0.046816	-0.15316	-0.008669	-0.046816	0.031938	-0.008669	0	0	0	-0.13552	0.026751	0.054682	-0.10555	0.01952	0.16987	-0.15569	-0.08482	0.058322
103	0.95745	-0.074931	-0.018082	0.16711	-0.12564	-0.27347	0.19975	-0.10816	-0.27059	0.22669	-0.046816	-0.15316	-0.008669	-0.046816	0.031938	-0.008669	0	0	0	-0.1355	0.026762	0.054689	-0.10552	0.019547	0.16988	-0.1557	-0.084816	0.058355
104	0.96683	-0.074924	-0.018045	0.16712	-0.12558	-0.2735	0.19999	-0.1081	-0.2706	0.22693	-0.046816	-0.15316	-0.008669	-0.046816	0.031938	-0.008669	0	0	0	-0.13549	0.026771	0.054697	-0.10549	0.019574	0.16989	-0.1557	-0.084814	0.058387
105	0.97622	-0.074916	-0.018009	0.16713	-0.12552	-0.27353	0.20024	-0.10802	-0.27062	0.22717	-0.046816	-0.15316	-0.008669	-0.046816	0.031938	-0.008669	0	0	0	-0.13548	0.02678	0.054704	-0.10546	0.0196	0.1699	-0.15571	-0.084815	0.058419
106	0.98561	-0.074908	-0.017973	0.16714	-0.12544	-0.27356	0.20049	-0.10795	-0.27064	0.22741	-0.046816	-0.15316	-0.008669	-0.046816	0.031938	-0.008669	0	0	0	-0.13547	0.026787	0.054711	-0.10543	0.019626	0.16991	-0.15571	-0.084819	0.058451
107	0.99499	-0.0749	-0.017938	0.16715	-0.12536	-0.27359	0.20074	-0.10786	-0.27066	0.22766	-0.046816	-0.15316	-0.008669	-0.046816	0.031938	-0.008669	0	0	0	-0.13545	0.026794	0.054718	-0.10541	0.019652	0.16992	-0.15572	-0.084825	0.058482
108	1.0044	-0.074891	-0.017904	0.16716	-0.12527	-0.27362	0.201	-0.10775	-0.27068	0.22791	-0.046816	-0.15316	-0.008669	-0.046816	0.031938	-0.008669	0	0	0	-0.13545	0.026799	0.054725	-0.10538	0.019677	0.16992	-0.15572	-0.084834	0.058513
109	1.0138	-0.074871	-0.017873	0.16717	-0.12505	-0.27365	0.20128	-0.10752	-0.27069	0.22817	-0.046816	-0.15316	-0.008669	-0.046816	0.031938	-0.008669	0	0	0	-0.13544	0.0268	0.054732	-0.10534	0.019701	0.16993	-0.15573	-0.084847	0.058546
110	1.0232	-0.074839	-0.017844	0.16716	-0.12469	-0.27367	0.20157	-0.10715	-0.27068	0.22845	-0.046816	-0.15316	-0.008669	-0.046816	0.031938	-0.008669	0	0	0	-0.13544	0.026797	0.054738	-0.1053	0.019726	0.16993	-0.15573	-0.084865	0.058583
111	1.0325	-0.074797	-0.017819	0.16716	-0.12421	-0.27368	0.20188	-0.10666	-0.27066	0.22874	-0.046816	-0.15316	-0.008669	-0.046816	0.031938	-0.008669	0	0	0	-0.13544	0.026789	0.054743	-0.10526	0.01975	0.16993	-0.15573	-0.084888	0.058623
112	1.0419	-0.074743	-0.017795	0.16714	-0.1236	-0.27369	0.2022	-0.10603	-0.27063	0.22905	-0.046816	-0.15316	-0.008669	-0.046816	0.031938	-0.008669	0	0	0	-0.13544	0.026778	0.054749	-0.10521	0.019774	0.16993	-0.15573	-0.084915	0.058666
113	1.0513	-0.074678	-0.017774	0.16712	-0.12287	-0.27369	0.20254	-0.10528	-0.27058	0.22937	-0.046816	-0.15316	-0.008669	-0.046816	0.031938	-0.008669	0	0	0	-0.13545	0.026762	0.054754	-0.10516	0.019799	0.16993	-0.15572	-0.084947	0.058712
114	1.0607	-0.074604	-0.017756	0.16709	-0.12202	-0.27369	0.20289	-0.10441	-0.27052	0.2297	-0.046816	-0.15316	-0.008669	-0.046816	0.031938	-0.008669	0	0	0	-0.13546	0.026742	0.054759	-0.1051	0.019823	0.16992	-0.15572	-0.084983	0.058762
115	1.0701	-0.074519	-0.01774	0.16706	-0.12105	-0.27367	0.20326	-0.10342	-0.27045	0.23005	-0.046816	-0.15316	-0.008669	-0.046816	0.031938	-0.008669	0	0	0	-0.13548	0.026718	0.054764	-0.10504	0.019847	0.16991	-0.15571	-0.085023	0.058814
116	1.0795	-0.074425	-0.017725	0.16702	-0.11998	-0.27366	0.20364	-0.10233	-0.27036	0.23041	-0.046816	-0.15316	-0.008669	-0.046816	0.031938	-0.008669	0	0	0	-0.1355	0.026691	0.054768	-0.10497	0.019872	0.1699	-0.1557	-0.085067	0.05887
117	1.0889	-0.074323	-0.017713	0.16698	-0.11879	-0.27363	0.20404	-0.10112	-0.27026	0.23078	-0.046816	-0.15316	-0.008669	-0.046816	0.031938	-0.008669	0	0	0	-0.13552	0.02666	0.054772	-0.1049	0.019896	0.16989	-0.15569	-0.085115	0.058928
118	1.0982	-0.074211	-0.017703	0.16693	-0.1175	-0.2736	0.20445	-0.099804	-0.27015	0.23116	-0.046816	-0.15316	-0.008669	-0.046816	0.031938	-0.008669	0	0	0	-0.13554	0.026625	0.054776	-0.10483	0.019921	0.16987	-0.15568	-0.085166	0.05899
119	1.1076	-0.074092	-0.017694	0.16688	-0.11611	-0.27357	0.20487	-0.09839	-0.27003	0.23155	-0.046816	-0.15316	-0.008669	-0.046816	0.031938	-0.008669	0	0	0	-0.13557	0.026587	0.05478	-0.10476	0.019946	0.16986	-0.15567	-0.085221	0.059055
120	1.117	-0.073964	-0.017687	0.16682	-0.11462	-0.27352	0.2053	-0.096878	-0.26989	0.23195	-0.046816	-0.15316	-0.008669	-0.046816	0.031938	-0.008669	0	0	0	-0.1356	0.026546	0.054783	-0.10468	0.019971	0.16984	-0.15566	-0.085279	0.059122
121	1.1264	-0.073829	-0.017681	0.16676	-0.11303	-0.27348	0.20574	-0.095273	-0.26974	0.23237	-0.046816	-0.15316	-0.008669	-0.046816	0.031938	-0.008669	0	0	0	-0.13563	0.026501	0.054787	-0.10459	0.019997	0.16982	-0.15565	-0.085341	0.059193
122	1.1358	-0.073687	-0.017677	0.16669	-0.11136	-0.27342	0.2062	-0.093578	-0.26958	0.23279	-0.046816	-0.15316	-0.008669	-0.046816	0.031938	-0.008669	0	0	0	-0.13566	0.026454	0.05479	-0.10451	0.020023	0.16979	-0.15563	-0.085405	0.059266
123	1.1452	-0.073539	-0.017674	0.16662	-0.1096	-0.27337	0.20666	-0.091797	-0.26941	0.23321	-0.046816	-0.15316	-0.008669	-0.046816	0.031938	-0.008669	0	0	0	-0.1357	0.026403	0.054792	-0.10442	0.020049	0.16977	-0.15561	-0.085473	0.059342
124	1.1546	-0.073384	-0.017672	0.16654	-0.10776	-0.2733	0.20713	-0.089935	-0.26923	0.23365	-0.046816	-0.15316	-0.008669	-0.046816	0.031938	-0.008669	0	0	0	-0.13574	0.026349	0.054795	-0.10433	0.020076	0.16974	-0.15559	-0.085543	0.059421
125	1.164	-0.073223	-0.017671	0.16646	-0.10584	-0.27323	0.20761	-0.087994	-0.26903	0.2341	-0.046816	-0.15316	-0.008669	-0.046816	0.031938	-0.008669	0	0	0	-0.13578	0.026293	0.054797	-0.10424	0.020104	0.16972	-0.15557	-0.085616	0.059503
